<svg id="Filled_Expand_2" height="512" viewBox="0 0 64 64" width="512" xmlns="http://www.w3.org/2000/svg" data-name="Filled Expand 2"><path d="m57 62h-50a3 3 0 0 1 -3-3v-45l26-2 30 2v45a3 3 0 0 1 -3 3z" fill="#e7edfa"/><path d="m6 14v47.8163a2.9721 2.9721 0 0 0 1 .1837h50a3 3 0 0 0 3-3v-45z" fill="#f2f7ff"/><path d="m14 47h36v10h-36z" fill="#fff"/><path d="m60 14h-56v-9a3 3 0 0 1 3-3h50a3 3 0 0 1 3 3z" fill="#7ab4ff"/><path d="m60 14v-9a2.9657 2.9657 0 0 0 -.14-.86 2.9657 2.9657 0 0 0 -.86-.14h-50a3 3 0 0 0 -3 3v7z" fill="#64a0fa"/><circle cx="10" cy="8" fill="#f03a5a" r="2"/><circle cx="18" cy="8" fill="#ffd24a" r="2"/><circle cx="26" cy="8" fill="#78d7e6" r="2"/><path d="m20 19h24v23h-24z" fill="#c9efff"/><path d="m29 35h6a5 5 0 0 1 5 5v2a0 0 0 0 1 0 0h-16a0 0 0 0 1 0 0v-2a5 5 0 0 1 5-5z" fill="#64a0fa"/><path d="m36.5 29-3.5-4-5.5 4v1.5a4.5 4.5 0 0 0 4.5 4.5 4.5 4.5 0 0 0 4.5-4.5z" fill="#ffd7aa"/><path d="m32 23h-5l-.3937 1.5747a5.2523 5.2523 0 0 0 .8937 4.4253h2.2639a3.6182 3.6182 0 0 0 3.2361-2 3.6182 3.6182 0 0 0 3.2361 2h.2639v-1.5a4.5 4.5 0 0 0 -4.5-4.5z" fill="#d99e54"/><path d="m32 23h-5l-.3937 1.5747a5.2523 5.2523 0 0 0 .8937 4.4253h2.2639a3.6182 3.6182 0 0 0 3.2361-2 3.6182 3.6182 0 0 0 3.2361 2h.2639v-1.5a4.5 4.5 0 0 0 -4.5-4.5z" fill="#cf8e4a"/><path d="m57 1.25h-50a3.7541 3.7541 0 0 0 -3.75 3.75v54a3.7541 3.7541 0 0 0 3.75 3.75h50a3.7541 3.7541 0 0 0 3.75-3.75v-54a3.7541 3.7541 0 0 0 -3.75-3.75zm-50 1.5h50a2.2525 2.2525 0 0 1 2.25 2.25v8.25h-54.5v-8.25a2.2525 2.2525 0 0 1 2.25-2.25zm52.25 56.25a2.2525 2.2525 0 0 1 -2.25 2.25h-50a2.2525 2.2525 0 0 1 -2.25-2.25v-44.25h54.5z"/><path d="m10 10.75a2.75 2.75 0 1 0 -2.75-2.75 2.7528 2.7528 0 0 0 2.75 2.75zm0-4a1.25 1.25 0 1 1 -1.25 1.25 1.2511 1.2511 0 0 1 1.25-1.25z"/><path d="m18 10.75a2.75 2.75 0 1 0 -2.75-2.75 2.7528 2.7528 0 0 0 2.75 2.75zm0-4a1.25 1.25 0 1 1 -1.25 1.25 1.2511 1.2511 0 0 1 1.25-1.25z"/><path d="m26 10.75a2.75 2.75 0 1 0 -2.75-2.75 2.7528 2.7528 0 0 0 2.75 2.75zm0-4a1.25 1.25 0 1 1 -1.25 1.25 1.2511 1.2511 0 0 1 1.25-1.25z"/><path d="m20 42.75h24a.75.75 0 0 0 .75-.75v-23a.75.75 0 0 0 -.75-.75h-24a.75.75 0 0 0 -.75.75v23a.75.75 0 0 0 .75.75zm15.75-14.54a2.85 2.85 0 0 1 -2.0791-1.5449.7813.7813 0 0 0 -1.3418 0 2.8519 2.8519 0 0 1 -2.5654 1.5849h-1.8706a4.48 4.48 0 0 1 -.5591-3.4937l.2514-1.0063h4.4146a3.7541 3.7541 0 0 1 3.75 3.75zm-7.5 1.54h1.5137a4.3421 4.3421 0 0 0 3.2363-1.4307 4.3187 4.3187 0 0 0 2.75 1.38v.8007a3.75 3.75 0 0 1 -7.5 0zm6.75 6a4.255 4.255 0 0 1 4.25 4.25v1.25h-14.5v-1.25a4.255 4.255 0 0 1 4.25-4.25zm-14.25-16h22.5v21.5h-2.5v-1.25a5.7574 5.7574 0 0 0 -5.1293-5.7151 5.2251 5.2251 0 0 0 1.6293-3.7849v-3a5.2558 5.2558 0 0 0 -5.25-5.25h-5a.75.75 0 0 0 -.7275.5684l-.3936 1.5742a5.9684 5.9684 0 0 0 .8711 4.8327v1.2747a5.2251 5.2251 0 0 0 1.6293 3.7849 5.7574 5.7574 0 0 0 -5.1293 5.7151v1.25h-2.5z"/><path d="m14 57.75h36a.75.75 0 0 0 .75-.75v-10a.75.75 0 0 0 -.75-.75h-36a.75.75 0 0 0 -.75.75v10a.75.75 0 0 0 .75.75zm.75-10h34.5v8.5h-34.5z"/><path d="m46.03 49.97a.75.75 0 0 0 -1.0606 0l-.97.97-.97-.97a.75.75 0 0 0 -1.0594 1.06l.97.97-.97.97a.75.75 0 1 0 1.06 1.06l.97-.97.97.97a.75.75 0 0 0 1.06-1.06l-.97-.97.97-.97a.75.75 0 0 0 0-1.06z"/><path d="m38.03 49.97a.75.75 0 0 0 -1.0606 0l-.97.97-.97-.97a.75.75 0 0 0 -1.0594 1.06l.97.97-.97.97a.75.75 0 1 0 1.06 1.06l.97-.97.97.97a.75.75 0 0 0 1.06-1.06l-.97-.97.97-.97a.75.75 0 0 0 0-1.06z"/><path d="m30.03 49.97a.75.75 0 0 0 -1.0606 0l-.97.97-.97-.97a.75.75 0 0 0 -1.0594 1.06l.97.97-.97.97a.75.75 0 1 0 1.06 1.06l.97-.97.97.97a.75.75 0 1 0 1.06-1.06l-.97-.97.97-.97a.75.75 0 0 0 0-1.06z"/><path d="m22.03 49.97a.75.75 0 0 0 -1.0606 0l-.97.97-.97-.97a.75.75 0 0 0 -1.0594 1.06l.97.97-.97.97a.75.75 0 1 0 1.06 1.06l.97-.97.97.97a.75.75 0 1 0 1.06-1.06l-.97-.97.97-.97a.75.75 0 0 0 0-1.06z"/></svg>